<?xml version="1.0" encoding="UTF-8"?>
<svg version="1.1" xmlns="http://www.w3.org/2000/svg" width="779" height="159" viewBox="0 0 779 159">
<path d="M0 0 C77.88 0 155.76 0 236 0 C236 18.81 236 37.62 236 57 C158.12 57 80.24 57 0 57 C0 38.19 0 19.38 0 0 Z " fill="#863BC1" transform="translate(522,98)"/>
<path d="M0 0 C3.88389862 2.78141905 7.29660075 6.00515229 10.54296875 9.5078125 C11.02507812 9.99636719 11.5071875 10.48492188 12.00390625 10.98828125 C21.71272977 21.36243024 24.24674057 34.68728169 23.8515625 48.44140625 C23.1361677 61.04838429 16.97743435 73.23504242 7.734375 81.81640625 C-4.03860008 90.90321233 -17.3987137 96.03032937 -32.45703125 94.5078125 C-45.93801847 92.42262383 -57.57735699 86.64788509 -66.50390625 76.0859375 C-75.15542547 64.1808555 -78.55767862 52.19457581 -77.45703125 37.5078125 C-75.11944661 22.78833422 -68.18176383 11.59334987 -56.64453125 2.1953125 C-40.29506508 -9.38418869 -17.09917502 -10.38455462 0 0 Z M-50.45703125 28.5078125 C-54.57055545 35.75835664 -55.92406381 43.01056128 -53.76171875 51.11328125 C-50.86806684 59.1498523 -46.96573372 64.4424749 -39.33203125 68.3828125 C-31.49331791 72.07018233 -24.38055304 72.43561424 -16.0859375 69.73828125 C-8.93997365 66.39358792 -2.74533913 60.4250207 -0.01171875 52.953125 C2.34447079 42.56597958 0.00499419 34.13360385 -5.45703125 25.2578125 C-11.06145348 19.2774839 -19.02278831 16.15373272 -27.08203125 15.8203125 C-36.64782501 16.32377533 -44.77517482 20.76119658 -50.45703125 28.5078125 Z " fill="#000000" transform="translate(99.45703125,15.4921875)"/>
<path d="M0 0 C19.8 0 39.6 0 60 0 C60 7.26 60 14.52 60 22 C48.12 22 36.24 22 24 22 C24 35.2 24 48.4 24 62 C32.25 62 40.5 62 49 62 C49 68.6 49 75.2 49 82 C40.75 82 32.5 82 24 82 C24 96.52 24 111.04 24 126 C35.88 126 47.76 126 60 126 C60 133.26 60 140.52 60 148 C40.2 148 20.4 148 0 148 C0 99.16 0 50.32 0 0 Z " fill="#000000" transform="translate(142,3)"/>
<path d="M0 0 C5.25583787 4.05137503 7.7188961 7.8221189 9 14.3125 C9.26061237 17.39632171 9.25368513 20.45921267 9.22705078 23.55249023 C9.22734283 24.45084091 9.22763489 25.34919159 9.22793579 26.27476501 C9.22655016 29.22364189 9.21102517 32.17226139 9.1953125 35.12109375 C9.19157964 37.17375043 9.18873396 39.22640889 9.18673706 41.27906799 C9.17912208 46.66638153 9.15949196 52.05358623 9.1373291 57.44085693 C9.11682462 62.94428027 9.10772551 68.4477213 9.09765625 73.95117188 C9.07624401 84.73833662 9.0410793 95.52539221 9 106.3125 C2.07 106.3125 -4.86 106.3125 -12 106.3125 C-12.01458252 103.72301514 -12.02916504 101.13353027 -12.04418945 98.46557617 C-12.09447578 89.91990094 -12.1610601 81.37440907 -12.23571491 72.82891369 C-12.28048548 67.64661901 -12.31972676 62.46440416 -12.34643555 57.28198242 C-12.37240193 52.28275134 -12.41275674 47.2838264 -12.46318626 42.28478432 C-12.4799002 40.37540806 -12.4913862 38.46597879 -12.49761391 36.55653954 C-12.50720594 33.88656727 -12.53520561 31.21738624 -12.56762695 28.54760742 C-12.56619186 27.75422974 -12.56475677 26.96085205 -12.5632782 26.14343262 C-12.62424057 21.99806661 -12.62424057 21.99806661 -14.30827332 18.29780579 C-16.17777906 17.0189165 -16.17777906 17.0189165 -19.5 17.3125 C-23.03999128 17.9662296 -23.03999128 17.9662296 -24.69172668 20.36332703 C-26.35381322 24.11008287 -26.43999044 27.47511741 -26.43237305 31.49926758 C-26.4425647 32.30954407 -26.45275635 33.11982056 -26.46325684 33.95465088 C-26.49335429 36.62218164 -26.50264772 39.2893531 -26.51171875 41.95703125 C-26.52856786 43.81077769 -26.54671841 45.66451273 -26.56611633 47.51823425 C-26.61359728 52.38927648 -26.64341899 57.26027244 -26.66955566 62.13146973 C-26.69937076 67.10531754 -26.74589785 72.079006 -26.79101562 77.05273438 C-26.87702725 86.80592451 -26.94283697 96.55909807 -27 106.3125 C-33.93 106.3125 -40.86 106.3125 -48 106.3125 C-48 71.0025 -48 35.6925 -48 -0.6875 C-41.73 -0.6875 -35.46 -0.6875 -29 -0.6875 C-28.67 2.6125 -28.34 5.9125 -28 9.3125 C-27.319375 8.24 -26.63875 7.1675 -25.9375 6.0625 C-19.89535664 -2.21187966 -9.35589662 -4.94007473 0 0 Z " fill="#000000" transform="translate(393,44.6875)"/>
<path d="M0 0 C6.5547646 5.04495927 9.61189203 11.59350497 11.0859375 19.60546875 C11.55375841 25.63294122 11.36842647 31.69208434 11.2734375 37.73046875 C11.2115625 43.29921875 11.1496875 48.86796875 11.0859375 54.60546875 C-0.4640625 54.60546875 -12.0140625 54.60546875 -23.9140625 54.60546875 C-23.7903125 58.60671875 -23.6665625 62.60796875 -23.5390625 66.73046875 C-23.50506348 67.98102051 -23.47106445 69.23157227 -23.43603516 70.52001953 C-23.4004248 71.5201709 -23.36481445 72.52032227 -23.328125 73.55078125 C-23.28099365 75.07469482 -23.28099365 75.07469482 -23.23291016 76.62939453 C-22.88235971 79.90137761 -22.19593646 82.57455616 -20.9140625 85.60546875 C-18.01944349 87.96686177 -18.01944349 87.96686177 -14.3515625 87.41796875 C-10.65580498 86.95707113 -10.65580498 86.95707113 -8.9140625 83.60546875 C-8.55054746 81.58004727 -8.55054746 81.58004727 -8.5 79.375 C-8.46438965 78.65159424 -8.4287793 77.92818848 -8.39208984 77.18286133 C-8.35809082 76.27044678 -8.3240918 75.35803223 -8.2890625 74.41796875 C-8.1034375 70.05578125 -8.1034375 70.05578125 -7.9140625 65.60546875 C-1.6440625 65.60546875 4.6259375 65.60546875 11.0859375 65.60546875 C11.79701781 89.24888907 11.79701781 89.24888907 3.6484375 99.10546875 C-2.00651985 105.01417418 -6.98665984 106.73363664 -15.0390625 106.91796875 C-23.21065902 106.82635892 -29.63639476 104.99440615 -35.7890625 99.48046875 C-41.94453716 92.74428894 -44.00322446 83.73164062 -44.09106445 74.828125 C-44.10389969 73.68923828 -44.11673492 72.55035156 -44.12995911 71.37695312 C-44.13734604 70.15298828 -44.14473297 68.92902344 -44.15234375 67.66796875 C-44.1604155 66.39630859 -44.16848724 65.12464844 -44.17680359 63.81445312 C-44.1906281 61.12121967 -44.20164768 58.42810785 -44.20922852 55.73486328 C-44.22022861 52.32029368 -44.25456626 48.90638733 -44.29440022 45.49205017 C-44.32718809 42.19659055 -44.33137334 38.90106654 -44.33984375 35.60546875 C-44.35735184 34.39769775 -44.37485992 33.18992676 -44.39289856 31.94555664 C-44.37005115 22.85441104 -43.33999866 12.61498816 -37.6640625 5.10546875 C-27.35965856 -4.26217119 -12.52496822 -7.42759743 0 0 Z M-21.2890625 16.85546875 C-23.55532272 20.69067836 -24.04154961 23.73737611 -24.01171875 28.15234375 C-24.00849609 28.99667969 -24.00527344 29.84101562 -24.00195312 30.7109375 C-23.99357422 31.58363281 -23.98519531 32.45632812 -23.9765625 33.35546875 C-23.97205078 34.24363281 -23.96753906 35.13179687 -23.96289062 36.046875 C-23.95113672 38.23310191 -23.93320216 40.41929403 -23.9140625 42.60546875 C-18.6340625 42.60546875 -13.3540625 42.60546875 -7.9140625 42.60546875 C-7.80603519 38.87552579 -7.72672653 35.14871654 -7.6640625 31.41796875 C-7.63054687 30.36287109 -7.59703125 29.30777344 -7.5625 28.22070312 C-7.45421452 22.04475902 -7.45421452 22.04475902 -9.7109375 16.40625 C-11.90600433 14.31382548 -11.90600433 14.31382548 -15.4140625 13.98046875 C-19.02066078 14.29378983 -19.02066078 14.29378983 -21.2890625 16.85546875 Z " fill="#000000" transform="translate(318.9140625,46.39453125)"/>
<path d="M0 0 C6.66918276 4.75371518 10.12731125 11.17993044 11.55078125 19.203125 C11.88136728 23.56686062 11.86328125 27.9518851 11.86328125 32.328125 C5.92328125 32.328125 -0.01671875 32.328125 -6.13671875 32.328125 C-6.29947917 29.33333333 -6.46223958 26.33854167 -6.625 23.34375 C-7.17774272 20.08636544 -7.7653169 18.60727552 -10.13671875 16.328125 C-12.86516429 15.58000284 -15.37451867 15.7699304 -18.13671875 16.328125 C-20.32219559 17.76961475 -20.32219559 17.76961475 -21.13671875 20.328125 C-21.72894225 25.65813651 -20.78954202 28.74179063 -18.13671875 33.328125 C-15.73073228 36.13229394 -15.73073228 36.13229394 -12.94921875 38.765625 C-12.46163086 39.24298096 -11.97404297 39.72033691 -11.47167969 40.2121582 C-8.69074176 42.91229738 -5.8347282 45.50029796 -2.88671875 48.015625 C4.54965723 54.4462616 10.98372547 61.20811226 12.08642578 71.38818359 C12.68838203 80.13824976 13.00700792 88.83757304 7.86328125 96.328125 C7.24453125 97.29105469 7.24453125 97.29105469 6.61328125 98.2734375 C2.78170511 103.47654374 -1.8921792 105.90967448 -8.13671875 107.328125 C-16.62915094 108.27281069 -24.76550473 108.00094817 -32.13671875 103.328125 C-37.58221377 98.75927217 -41.04287815 93.37732001 -42.13671875 86.328125 C-42.3588263 81.28022608 -42.27370263 76.39652865 -42.13671875 71.328125 C-36.19671875 71.328125 -30.25671875 71.328125 -24.13671875 71.328125 C-23.97395833 74.58333333 -23.81119792 77.83854167 -23.6484375 81.09375 C-23.11363509 84.47402784 -22.53527062 85.9352976 -20.13671875 88.328125 C-16.73625348 89.36304921 -14.74643862 89.5042663 -11.32421875 88.515625 C-8.99471139 87.52136731 -8.99471139 87.52136731 -8.13671875 85.328125 C-7.78455669 83.19747446 -7.78455669 83.19747446 -7.69921875 80.765625 C-7.60833984 79.55712891 -7.60833984 79.55712891 -7.515625 78.32421875 C-9.22582218 70.07439963 -16.01118067 64.14033331 -22.07421875 58.765625 C-40.23547853 42.47060315 -40.23547853 42.47060315 -41.515625 29.484375 C-41.93347066 20.06050306 -40.92682849 11.91615258 -34.76171875 4.453125 C-25.01108173 -3.44024783 -11.63758408 -6.22424459 0 0 Z " fill="#000000" transform="translate(506.13671875,45.671875)"/>
<path d="M0 0 C6.93 0 13.86 0 21 0 C21.2673999 1.83216064 21.5347998 3.66432129 21.81030273 5.55200195 C22.694127 11.60326698 23.5804755 17.65415803 24.46855068 23.70480061 C25.00693158 27.37354693 25.54429588 31.04243619 26.0793457 34.71166992 C26.59566913 38.25222183 27.11465139 41.79237466 27.6354847 45.33226585 C27.83379048 46.68332211 28.03113546 48.03451974 28.22750664 49.38585854 C28.50256652 51.27754807 28.78135031 53.168695 29.06030273 55.05981445 C29.21796616 56.13681107 29.37562958 57.21380768 29.53807068 58.32344055 C29.94648178 61.08991086 29.94648178 61.08991086 31 64 C33.97 42.88 36.94 21.76 40 0 C46.6 0 53.2 0 60 0 C58.875 10.125 58.875 10.125 58.15843201 13.80274963 C57.99718842 14.63970871 57.83594482 15.47666779 57.66981506 16.33898926 C57.49574631 17.22300415 57.32167755 18.10701904 57.14233398 19.01782227 C56.86413818 20.4535685 56.86413818 20.4535685 56.58032227 21.9183197 C55.97231751 25.05168807 55.35924733 28.18404175 54.74609375 31.31640625 C54.32122408 33.50066624 53.89667338 35.6849883 53.47242737 37.86936951 C52.35935077 43.59588864 51.2419634 49.32155827 50.12365723 55.04705811 C48.98151149 60.89870089 47.84347089 66.7511418 46.70507812 72.60351562 C44.47405477 84.06979343 42.23809461 95.53510033 40 107 C33.73 107 27.46 107 21 107 C18.06931631 95.94783069 15.92810152 84.77832688 13.76953125 73.5546875 C13.37048636 71.49150178 12.97120568 69.42836164 12.57170105 67.36526489 C11.74017914 63.06746842 10.91085835 58.76925526 10.08325195 54.47070312 C9.02082366 48.95297662 7.95380499 43.43615004 6.88528919 37.91959953 C6.0628691 33.67182413 5.24234679 29.42368399 4.42246056 25.17541885 C4.0293985 23.13948554 3.63585661 21.10364481 3.24183083 19.0678978 C2.69427075 16.23686369 2.14914627 13.40537179 1.60473633 10.57373047 C1.44113617 9.73015488 1.27753601 8.88657928 1.10897827 8.0174408 C0 2.228868 0 2.228868 0 0 Z " fill="#000000" transform="translate(206,44)"/>
<path d="M0 0 C0 7.59 0 15.18 0 23 C3.63 23 7.26 23 11 23 C11 28.94 11 34.88 11 41 C7.37 41 3.74 41 0 41 C0.06162814 50.38953712 0.13902657 59.77878122 0.23571491 69.16802311 C0.28014986 73.52939514 0.31946239 77.89067951 0.34643555 82.25219727 C0.37274025 86.47344156 0.41332641 90.69434345 0.46318626 94.91537285 C0.47967372 96.51338834 0.49129931 98.11146279 0.49761391 99.70955086 C0.54331921 110.22841943 1.64295303 119.72942165 4 130 C-2.93 130 -9.86 130 -17 130 C-19.76241154 121.71276539 -21.12807562 116.05231374 -21.11352539 107.52587891 C-21.11367142 106.80323853 -21.11381744 106.08059814 -21.1139679 105.33605957 C-21.11327561 102.96619584 -21.10551546 100.59641237 -21.09765625 98.2265625 C-21.09578964 96.57604007 -21.09436688 94.92551708 -21.09336853 93.2749939 C-21.0895625 88.94478813 -21.07974866 84.61461626 -21.06866455 80.28442383 C-21.05840917 75.86019346 -21.05386209 71.43595759 -21.04882812 67.01171875 C-21.03812458 58.34113033 -21.02107128 49.67056939 -21 41 C-24.3 41 -27.6 41 -31 41 C-31 35.06 -31 29.12 -31 23 C-27.37 23 -23.74 23 -20 23 C-20 17.06 -20 11.12 -20 5 C-17.04251786 4.1635404 -14.08409896 3.33070305 -11.125 2.5 C-10.28324219 2.26152344 -9.44148438 2.02304687 -8.57421875 1.77734375 C-7.76855469 1.55175781 -6.96289062 1.32617188 -6.1328125 1.09375 C-5.38918457 0.88427734 -4.64555664 0.67480469 -3.87939453 0.45898438 C-2 0 -2 0 0 0 Z " fill="#000000" transform="translate(444,21)"/>
<path d="M0 0 C7.26 0 14.52 0 22 0 C22.391875 1.65 22.78375 3.3 23.1875 5 C25.42836641 13.14670126 28.86363381 19.1966766 36 24 C43.71372598 27.61626473 51.00979935 28.29411552 59.0625 25.4375 C66.84106333 21.97767245 72.0259884 17.296279 75.30859375 9.40625 C76.18836833 6.34443564 76.54947341 3.15368614 77 0 C84.59 0 92.18 0 100 0 C98.50084149 16.49074362 93.35987932 29.35852323 80.5234375 40.1796875 C68.37773946 48.94113531 55.64114693 51.38548824 41 50 C32.83918469 48.35851029 25.80701126 44.70798514 19 40 C18.36320312 39.56042969 17.72640625 39.12085938 17.0703125 38.66796875 C7.97221654 31.65232586 1.65978248 19.29302985 0 8 C0 5.36 0 2.72 0 0 Z " fill="#000000" transform="translate(23,109)"/>
<path d="M0 0 C18.15 0 36.3 0 55 0 C55 16.83 55 33.66 55 51 C54.01 50.505 54.01 50.505 53 50 C52.39874636 48.08015545 51.87000351 46.13744373 51.375 44.1875 C46.34077074 27.18299228 34.00949818 16.49515794 19.09130859 8.08056641 C14.82628194 5.87685313 10.37168441 4.37065381 5.79296875 2.9375 C3 2 3 2 0 0 Z " fill="#5E2887" transform="translate(76,2)"/>
<path d="M0 0 C14.92857143 0 14.92857143 0 19 3 C22.78134915 7.07362735 22.54720709 10.72707743 22.4296875 16.07421875 C21.7852194 20.46246061 20.28922532 22.10234912 17 25 C13.93618406 26.53190797 10.73034134 26.10243613 7.375 26.0625 C4.94125 26.041875 2.5075 26.02125 0 26 C0 17.42 0 8.84 0 0 Z" fill="#FAF7FC" transform="translate(718,113)"/>
<path d="M0 0 C2.31 0 4.62 0 7 0 C9.45417612 5.673142 11.46246904 10.81839396 12 17 C12.66 17 13.32 17 14 17 C14.0825 16.05125 14.165 15.1025 14.25 14.125 C14.93991766 9.11022533 17.00337644 4.61545074 19 0 C21.31 0 23.62 0 26 0 C26 8.58 26 17.16 26 26 C24.35 26 22.7 26 21 26 C20.67 21.05 20.34 16.1 20 11 C18.35 15.95 16.7 20.9 15 26 C13.68 26 12.36 26 11 26 C9.35 21.38 7.7 16.76 6 12 C5.67 16.62 5.34 21.24 5 26 C3.35 26 1.7 26 0 26 C0 17.42 0 8.84 0 0 Z" fill="#F7F1FA" transform="translate(628,113)"/>
<path d="M0 0 C6 0 6 0 7.7578125 1.6875 C8.20898438 2.450625 8.66015625 3.21375 9.125 4 C9.61484375 4.81339844 10.1046875 5.62679687 10.609375 6.46484375 C12.51312371 9.93544182 14.30795429 13.42067253 16 17 C16.33 11.39 16.66 5.78 17 0 C18.65 0 20.3 0 22 0 C22 8.58 22 17.16 22 26 C19.69 26 17.38 26 15 26 C12.03 20.72 9.06 15.44 6 10 C5.67 15.28 5.34 20.56 5 26 C3.35 26 1.7 26 0 26 C0 17.42 0 8.84 0 0 Z" fill="#F7F3FB" transform="translate(567,113)"/>
<path d="M0 0 C6.6 0 13.2 0 20 0 C20 1.65 20 3.3 20 5 C15.05 5 10.1 5 5 5 C5 6.98 5 8.96 5 11 C9.62 11 14.24 11 19 11 C19 12.32 19 13.64 19 15 C14.38 15 9.76 15 5 15 C5 17.31 5 19.62 5 22 C10.28 22 15.56 22 21 22 C21 23.32 21 24.64 21 26 C14.07 26 7.14 26 0 26 C0 17.42 0 8.84 0 0 Z" fill="#F9F6FC" transform="translate(693,113)"/>
<path d="M0 0 C1.65 0 3.3 0 5 0 C5.33 6.6 5.66 13.2 6 20 C12.32917961 20.52174919 12.32917961 20.52174919 15 19 C16.23759823 15.28720531 16.35608897 11.68693654 16.5625 7.8125 C16.60568359 7.06291016 16.64886719 6.31332031 16.69335938 5.54101562 C16.79922685 3.69421625 16.9000976 1.84713166 17 0 C18.65 0 20.3 0 22 0 C22.10822792 3.06345144 22.18741479 6.1230601 22.25 9.1875 C22.30027344 10.48397461 22.30027344 10.48397461 22.3515625 11.80664062 C22.41676616 16.0611794 22.39830711 18.35727716 20.109375 22.05078125 C16.93352007 24.98550645 14.93970649 25.22539598 10.6875 25.375 C9.74261719 25.42398438 8.79773438 25.47296875 7.82421875 25.5234375 C3.68947308 24.75710843 2.39115006 23.44860812 0 20 C-0.59134497 16.53698918 -0.47327355 13.18741643 -0.3125 9.6875 C-0.28994141 8.75615234 -0.26738281 7.82480469 -0.24414062 6.86523438 C-0.18542078 4.5751604 -0.10336858 2.28842125 0 0 Z" fill="#FCFAFD" transform="translate(540,114)"/>
<path d="M0 0 C7.26 0 14.52 0 22 0 C22 1.65 22 3.3 22 5 C19.36 5 16.72 5 14 5 C14 11.93 14 18.86 14 26 C12.02 26 10.04 26 8 26 C8 19.07 8 12.14 8 5 C5.36 5 2.72 5 0 5 C0 3.35 0 1.7 0 0 Z" fill="#F1E8F8" transform="translate(668,113)"/>
<path d="M0 0 C9.24 0 18.48 0 28 0 C28 3.3 28 6.6 28 10 C31.12084151 12.88021497 31.12084151 12.88021497 33.640625 14.38671875 C40.60399779 19.14809783 47.02004248 27.05344662 50 35 C49.505 35.99 49.505 35.99 49 37 C48.5153125 36.2265625 48.030625 35.453125 47.53125 34.65625 C37.25786493 18.69299012 23.95861381 8.62340962 5.79296875 2.9375 C3 2 3 2 0 0 Z " fill="#020103" transform="translate(76,2)"/>
<path d="M0 0 C1.98 0 3.96 0 6 0 C6 7.26 6 14.52 6 22 C10.29 22 14.58 22 19 22 C19 23.32 19 24.64 19 26 C12.73 26 6.46 26 0 26 C0 17.42 0 8.84 0 0 Z" fill="#F5EFFA" transform="translate(594,113)"/>
<path d="M0 0 C1.32 0 2.64 0 4 0 C4 14.52 4 29.04 4 44 C3.34 44 2.68 44 2 44 C-1.32548465 35.84554046 -1.40206055 27.85352755 -1.28125 19.20141602 C-1.24963154 16.91080716 -1.24022325 14.62088526 -1.234375 12.33007812 C-1.16413107 1.16413107 -1.16413107 1.16413107 0 0 Z" fill="#7532A9" transform="translate(126,3)"/>
<path d="M0 0 C8 0 8 0 10.5 1.5 C12.62985285 5.04975475 12.6464802 7.96364282 12 12 C11.0625 14.4375 11.0625 14.4375 9 16 C5.96535048 16.62952836 3.11284089 16.81954546 0 17 C0 11.39 0 5.78 0 0 Z" fill="#8C44C4" transform="translate(723,118)"/>
<path d="M0 0 C1.79244141 0.01740234 1.79244141 0.01740234 3.62109375 0.03515625 C5.41740234 0.04869141 5.41740234 0.04869141 7.25 0.0625 C8.17683594 0.07410156 9.10367188 0.08570312 10.05859375 0.09765625 C9.06859375 0.59265625 9.06859375 0.59265625 8.05859375 1.09765625 C8.05859375 7.03765625 8.05859375 12.97765625 8.05859375 19.09765625 C5.39192708 17.09765625 2.72526042 15.09765625 0.05859375 13.09765625 C-0.68261719 12.63230469 -1.42382812 12.16695312 -2.1875 11.6875 C-3.94140625 10.09765625 -3.94140625 10.09765625 -4.3671875 7.87109375 C-4.32980469 7.07960938 -4.29242188 6.288125 -4.25390625 5.47265625 C-4.22941406 4.67601562 -4.20492187 3.879375 -4.1796875 3.05859375 C-3.79082009 -0.14159381 -3.30795667 0.10982592 0 0 Z" fill="#401B5C" transform="translate(106.94140625,1.90234375)"/>
<path d="M0 0 C1.98 0 3.96 0 6 0 C6 8.58 6 17.16 6 26 C4.02 26 2.04 26 0 26 C0 17.42 0 8.84 0 0 Z" fill="#F0E8F7" transform="translate(659,113)"/>
<path d="M0 0 C1.98 0 3.96 0 6 0 C6 8.58 6 17.16 6 26 C4.02 26 2.04 26 0 26 C0 17.42 0 8.84 0 0 Z" fill="#F0E8F7" transform="translate(617,113)"/>
<path d="M0 0 C0 0.33 0 0.66 0 1 C-1.65 1 -3.3 1 -5 1 C-5 8.92 -5 16.84 -5 25 C-10 20 -10 20 -10.56762695 17.68823242 C-10.54144287 16.91842041 -10.51525879 16.1486084 -10.48828125 15.35546875 C-10.47216797 14.51435547 -10.45605469 13.67324219 -10.43945312 12.80664062 C-10.39755859 11.94232422 -10.35566406 11.07800781 -10.3125 10.1875 C-10.28994141 9.30384766 -10.26738281 8.42019531 -10.24414062 7.50976562 C-10.18547428 5.3391109 -10.09579979 3.1693331 -10 1 C-6.78548731 -0.60725635 -3.56387464 -0.05748185 0 0 Z" fill="#512376" transform="translate(125,2)"/>
<path d="M0 0 C1.65 0 3.3 0 5 0 C4.67 4.29 4.34 8.58 4 13 C2.35 12.01 0.7 11.02 -1 10 C-1.5234375 7.7734375 -1.5234375 7.7734375 -1.375 5.375 C-1.34148437 4.57835937 -1.30796875 3.78171875 -1.2734375 2.9609375 C-1 1 -1 1 0 0 Z" fill="#220F32" transform="translate(104,2)"/>
<path d="M0 0 C2.05078125 0.03255208 4.1015625 0.06510417 6.15234375 0.09765625 C6.15234375 0.42765625 6.15234375 0.75765625 6.15234375 1.09765625 C4.17234375 1.09765625 2.19234375 1.09765625 0.15234375 1.09765625 C0.15234375 5.71765625 0.15234375 10.33765625 0.15234375 15.09765625 C-0.83765625 14.43765625 -1.82765625 13.77765625 -2.84765625 13.09765625 C-3.17578125 10.3125 -3.17578125 10.3125 -3.09765625 7.03515625 C-3.0821875 5.95105469 -3.06671875 4.86695313 -3.05078125 3.75 C-2.77482598 0.14666099 -2.77482598 0.14666099 0 0 Z" fill="#331649" transform="translate(110.84765625,1.90234375)"/>
<path d="M0 0 C1.65 0 3.3 0 5 0 C4.67 2.97 4.34 5.94 4 9 C2.68 8.34 1.36 7.68 0 7 C0 4.69 0 2.38 0 0 Z" fill="#110719" transform="translate(99,2)"/>
</svg>
